<svg width="60" height="60" viewBox="0 0 60 60" fill="none" xmlns="http://www.w3.org/2000/svg">
<path d="M43.0378 46.0618C42.93 46.0617 42.8233 46.0402 42.7239 45.9985C42.6245 45.9567 42.5344 45.8955 42.4589 45.8185C42.0953 45.4486 41.6936 45.1181 41.2606 44.8326C41.0914 44.71 40.9761 44.5269 40.9387 44.3215C40.9012 44.116 40.9445 43.904 41.0595 43.7297C41.1745 43.5553 41.3523 43.4321 41.5559 43.3856C41.7595 43.3391 41.9732 43.373 42.1524 43.4801C42.6796 43.8292 43.1688 44.2324 43.6119 44.6834C43.7237 44.7974 43.7993 44.9419 43.8293 45.0987C43.8592 45.2555 43.8422 45.4177 43.7804 45.5649C43.7186 45.7121 43.6147 45.8378 43.4817 45.9262C43.3487 46.0146 43.1926 46.0617 43.033 46.0618H43.0378Z" fill="#2747F0"/>
<path d="M45.3243 58.3784H14.5784C14.3633 58.3784 14.1571 58.293 14.0051 58.1409C13.853 57.9888 13.7676 57.7826 13.7676 57.5676V50.8784C13.7702 48.5245 14.7064 46.2677 16.3708 44.6033C18.0353 42.9388 20.2921 42.0026 22.646 42H37.2243C37.4394 42 37.6456 42.0854 37.7977 42.2375C37.9497 42.3895 38.0351 42.5958 38.0351 42.8108C38.0351 43.0259 37.9497 43.2321 37.7977 43.3841C37.6456 43.5362 37.4394 43.6216 37.2243 43.6216H22.646C20.722 43.6238 18.8775 44.389 17.517 45.7494C16.1566 47.1099 15.3913 48.9544 15.3892 50.8784V56.7568H44.5135V50.8784C44.5151 50.312 44.4492 49.7475 44.3173 49.1968C44.2892 49.0924 44.2823 48.9836 44.2968 48.8765C44.3114 48.7695 44.3472 48.6665 44.4022 48.5735C44.4571 48.4804 44.5301 48.3994 44.6168 48.335C44.7036 48.2706 44.8023 48.2241 44.9072 48.1984C45.0121 48.1727 45.1211 48.1682 45.2278 48.1852C45.3345 48.2022 45.4367 48.2403 45.5284 48.2974C45.6202 48.3544 45.6996 48.4293 45.762 48.5174C45.8244 48.6056 45.8686 48.7053 45.8919 48.8108C46.0545 49.4869 46.1361 50.1798 46.1352 50.8751V57.5676C46.1352 57.7826 46.0497 57.9888 45.8977 58.1409C45.7456 58.293 45.5394 58.3784 45.3243 58.3784Z" fill="#2747F0"/>
<path d="M29.9497 38.9135C28.2691 38.9135 26.6262 38.4152 25.2288 37.4815C23.8315 36.5478 22.7424 35.2207 22.0992 33.668C21.4561 32.1153 21.2878 30.4068 21.6157 28.7585C21.9435 27.1102 22.7528 25.5961 23.9412 24.4077C25.1296 23.2194 26.6436 22.4101 28.292 22.0822C29.9403 21.7544 31.6488 21.9226 33.2015 22.5658C34.7541 23.2089 36.0812 24.298 37.0149 25.6954C37.9486 27.0928 38.447 28.7356 38.447 30.4162C38.4446 32.6691 37.5486 34.8291 35.9556 36.4221C34.3625 38.0152 32.2026 38.9112 29.9497 38.9135ZM29.9497 23.5406C28.5898 23.5406 27.2605 23.9438 26.1298 24.6993C24.9991 25.4548 24.1178 26.5287 23.5974 27.785C23.077 29.0414 22.9408 30.4239 23.2061 31.7576C23.4714 33.0914 24.1263 34.3165 25.0879 35.2781C26.0494 36.2397 27.2746 36.8945 28.6083 37.1598C29.9421 37.4251 31.3245 37.2889 32.5809 36.7685C33.8373 36.2481 34.9111 35.3669 35.6666 34.2362C36.4221 33.1055 36.8254 31.7761 36.8254 30.4162C36.8234 28.5933 36.0984 26.8456 34.8094 25.5565C33.5204 24.2675 31.7726 23.5425 29.9497 23.5406Z" fill="#2747F0"/>
<path d="M37.8487 58.3786H22.0541C21.8391 58.3786 21.6328 58.2932 21.4808 58.1412C21.3287 57.9891 21.2433 57.7829 21.2433 57.5678V52.9397C21.2433 52.7247 21.3287 52.5184 21.4808 52.3664C21.6328 52.2143 21.8391 52.1289 22.0541 52.1289C22.2691 52.1289 22.4754 52.2143 22.6274 52.3664C22.7795 52.5184 22.8649 52.7247 22.8649 52.9397V56.757H37.0379V52.9397C37.0379 52.7247 37.1233 52.5184 37.2754 52.3664C37.4274 52.2143 37.6337 52.1289 37.8487 52.1289C38.0637 52.1289 38.27 52.2143 38.422 52.3664C38.5741 52.5184 38.6595 52.7247 38.6595 52.9397V57.5678C38.6595 57.7829 38.5741 57.9891 38.422 58.1412C38.27 58.2932 38.0637 58.3786 37.8487 58.3786Z" fill="#2747F0"/>
<path d="M54.7143 24.4054C54.583 24.4054 54.4536 24.3734 54.3373 24.3122L50.1479 22.11L45.9592 24.3122C45.8253 24.3828 45.6743 24.4145 45.5232 24.4038C45.3722 24.393 45.2272 24.3401 45.1047 24.2512C44.9822 24.1622 44.887 24.0408 44.8299 23.9005C44.7729 23.7603 44.7563 23.6068 44.7819 23.4576L45.5822 18.793L42.1938 15.4865C42.0854 15.381 42.0087 15.2472 41.9724 15.1004C41.936 14.9536 41.9415 14.7995 41.9881 14.6556C42.0348 14.5117 42.1207 14.3837 42.2363 14.2861C42.3519 14.1885 42.4925 14.1252 42.6422 14.1033L47.3262 13.4222L49.4206 9.17842C49.4951 9.05182 49.6014 8.94687 49.729 8.87396C49.8566 8.80105 50.0009 8.7627 50.1479 8.7627C50.2948 8.7627 50.4392 8.80105 50.5667 8.87396C50.6943 8.94687 50.8006 9.05182 50.8752 9.17842L52.9695 13.4222L57.6535 14.1033C57.8033 14.125 57.944 14.1883 58.0597 14.2858C58.1754 14.3833 58.2614 14.5113 58.3082 14.6553C58.3549 14.7992 58.3604 14.9533 58.3241 15.1002C58.2878 15.2471 58.2111 15.3809 58.1027 15.4865L54.7135 18.7898L55.5138 23.4544C55.5338 23.5708 55.5281 23.6901 55.4971 23.8041C55.4661 23.9181 55.4106 24.0239 55.3344 24.1142C55.2583 24.2044 55.1633 24.277 55.0562 24.3267C54.9491 24.3765 54.8324 24.4022 54.7143 24.4022V24.4054ZM50.1479 20.383C50.2793 20.3828 50.4087 20.4148 50.5249 20.4763L53.6376 22.1125L53.0425 18.6487C53.0203 18.5189 53.03 18.3857 53.0708 18.2605C53.1116 18.1354 53.1823 18.022 53.2768 17.9303L55.7943 15.476L52.3143 14.9709C52.1842 14.952 52.0607 14.9017 51.9543 14.8245C51.848 14.7472 51.762 14.6452 51.7038 14.5273L50.1479 11.3741L48.5919 14.5241C48.5337 14.642 48.4477 14.7439 48.3414 14.8212C48.235 14.8985 48.1115 14.9487 47.9814 14.9676L44.5014 15.4727L47.0198 17.9271C47.1141 18.0189 47.1846 18.1322 47.2253 18.2574C47.266 18.3826 47.2756 18.5157 47.2533 18.6454L46.6581 22.1109L49.7708 20.4746C49.887 20.4132 50.0164 20.3812 50.1479 20.3814V20.383Z" fill="#2747F0"/>
<path d="M34.5665 17.2969C34.4352 17.2968 34.3059 17.2651 34.1895 17.2045L30 14.9999L25.8106 17.2028C25.6766 17.2732 25.5257 17.3048 25.3748 17.2939C25.2239 17.283 25.0791 17.2301 24.9567 17.1412C24.8343 17.0523 24.7392 16.9309 24.6822 16.7908C24.6252 16.6506 24.6085 16.4974 24.6341 16.3483L25.4343 11.6828L22.0451 8.3796C21.9367 8.27402 21.86 8.14021 21.8237 7.9933C21.7874 7.84639 21.793 7.69226 21.8397 7.54833C21.8864 7.4044 21.9725 7.27642 22.0882 7.17888C22.2039 7.08133 22.3446 7.01811 22.4943 6.99636L27.1784 6.31609L29.2703 2.07393C29.3448 1.94733 29.4512 1.84238 29.5787 1.76947C29.7063 1.69656 29.8506 1.6582 29.9976 1.6582C30.1445 1.6582 30.2889 1.69656 30.4164 1.76947C30.544 1.84238 30.6503 1.94733 30.7249 2.07393L32.8216 6.31771L37.5057 6.99798C37.6554 7.01973 37.7961 7.08295 37.9118 7.1805C38.0275 7.27805 38.1136 7.40602 38.1603 7.54995C38.2071 7.69388 38.2126 7.84802 38.1763 7.99492C38.14 8.14183 38.0633 8.27564 37.9549 8.38123L34.5657 11.6845L35.3659 16.3499C35.3858 16.4662 35.38 16.5855 35.3489 16.6994C35.3179 16.8132 35.2624 16.9189 35.1862 17.0091C35.1101 17.0993 35.0152 17.1718 34.9082 17.2215C34.8011 17.2712 34.6845 17.2969 34.5665 17.2969ZM30 13.2753C30.1313 13.2751 30.2607 13.3068 30.377 13.3677L33.4865 15.0039L32.8914 11.5385C32.8692 11.4089 32.8789 11.2759 32.9195 11.1509C32.9602 11.0259 33.0307 10.9127 33.1249 10.821L35.6432 8.36663L32.1665 7.86474C32.0363 7.84576 31.9127 7.7954 31.8063 7.71799C31.7 7.64058 31.614 7.53845 31.556 7.42041L30 4.26474L28.4441 7.41717C28.386 7.53521 28.3 7.63734 28.1937 7.71475C28.0873 7.79216 27.9637 7.84252 27.8335 7.8615L24.3535 8.36663L26.8719 10.821C26.9661 10.9127 27.0365 11.0259 27.0772 11.1509C27.1179 11.2759 27.1276 11.4089 27.1054 11.5385L26.5135 15.0039L29.6262 13.3677C29.7416 13.3073 29.8698 13.2756 30 13.2753Z" fill="#2747F0"/>
<path d="M14.4186 24.4055C14.287 24.4055 14.1573 24.3735 14.0408 24.3122L9.85215 22.1101L5.66269 24.3106C5.52879 24.381 5.37786 24.4125 5.22697 24.4016C5.07608 24.3907 4.93125 24.3379 4.80885 24.2489C4.68645 24.16 4.59137 24.0387 4.53435 23.8985C4.47733 23.7584 4.46066 23.6051 4.4862 23.456L5.28648 18.7914L1.89729 15.4865C1.79029 15.3808 1.71484 15.2473 1.67936 15.1011C1.64388 14.9549 1.64978 14.8017 1.6964 14.6587C1.74301 14.5157 1.8285 14.3884 1.94331 14.2912C2.05812 14.194 2.19771 14.1306 2.34648 14.1082L7.03053 13.4271L9.12485 9.1833C9.19941 9.0567 9.30573 8.95176 9.43329 8.87884C9.56084 8.80593 9.70522 8.76758 9.85215 8.76758C9.99908 8.76758 10.1435 8.80593 10.271 8.87884C10.3986 8.95176 10.5049 9.0567 10.5794 9.1833L12.6738 13.4271L17.3578 14.1082C17.5075 14.13 17.6481 14.1934 17.7637 14.291C17.8793 14.3885 17.9653 14.5165 18.0119 14.6604C18.0585 14.8044 18.064 14.9584 18.0277 15.1053C17.9913 15.2521 17.9146 15.3859 17.8062 15.4914L14.4178 18.7947L15.2181 23.4593C15.2381 23.5757 15.2323 23.695 15.2014 23.809C15.1704 23.9229 15.1149 24.0288 15.0387 24.119C14.9626 24.2093 14.8676 24.2819 14.7605 24.3316C14.6534 24.3814 14.5367 24.4071 14.4186 24.4071V24.4055ZM9.85215 20.383C9.98356 20.3828 10.113 20.4148 10.2292 20.4763L13.3419 22.1125L12.7467 18.6487C12.7244 18.519 12.7341 18.3858 12.7747 18.2607C12.8154 18.1355 12.886 18.0221 12.9803 17.9303L15.4986 15.476L12.0186 14.9709C11.8885 14.952 11.765 14.9017 11.6586 14.8245C11.5523 14.7472 11.4663 14.6452 11.4081 14.5274L9.85215 11.3741L8.29621 14.5274C8.23802 14.6452 8.15204 14.7472 8.04568 14.8245C7.93932 14.9017 7.81576 14.952 7.68566 14.9709L4.20566 15.476L6.71918 17.9303C6.81434 18.0217 6.8858 18.1348 6.92734 18.26C6.96888 18.3852 6.97925 18.5186 6.95756 18.6487L6.36242 22.1109L9.47512 20.4747C9.59128 20.4132 9.72074 20.3812 9.85215 20.3814V20.383Z" fill="#2747F0"/>
</svg>
