<svg width="32" height="38" viewBox="0 0 32 38" fill="none" xmlns="http://www.w3.org/2000/svg">
<path d="M1.62116 17.7955L0.371157 17.7995L0.424594 34.6745C0.428193 35.503 0.760257 36.2962 1.34794 36.8802C1.93563 37.4641 2.73095 37.7911 3.55944 37.7895L22.3094 37.7302L28.5594 37.7104C29.388 37.7068 30.1812 37.3748 30.7652 36.7871C31.3492 36.1994 31.6763 35.404 31.6746 34.5755L31.6647 31.4505L30.4147 31.4544L30.4246 34.5794C30.4256 35.0765 30.2293 35.5537 29.879 35.9063C29.5286 36.2589 29.0526 36.4582 28.5555 36.4603L24.8038 36.4722C25.2094 35.9307 25.4274 35.2717 25.4246 34.5952L25.3969 25.8452L30.3969 25.8296L30.4009 27.0796L26.6509 27.0914L26.6549 28.3414L30.4049 28.3296L30.4108 30.2046L31.6608 30.2007L31.5818 5.20066C31.579 4.53784 31.3134 3.9032 30.8432 3.43598C30.3731 2.96876 29.7368 2.70712 29.074 2.70847L24.1755 2.7241C23.6507 2.72534 23.1396 2.89188 22.7148 3.20007C22.2901 3.50827 21.9732 3.94245 21.8091 4.44097L21.5815 5.13082L21.5759 3.35738C21.575 3.07704 21.5188 2.79963 21.4106 2.54101C21.3024 2.28239 21.1443 2.04762 20.9454 1.85011L19.9516 0.86269C19.7533 0.664526 19.5177 0.507654 19.2583 0.401152C18.999 0.29465 18.7211 0.240631 18.4408 0.242222L13.4408 0.257847C13.1604 0.257973 12.8828 0.31372 12.6241 0.421861C12.3653 0.530001 12.1307 0.688386 11.9336 0.887847L10.9462 1.88175C10.7486 2.08056 10.5921 2.31634 10.4856 2.57563C10.3792 2.83492 10.3248 3.11263 10.3257 3.39292L10.3313 5.16636L10.0993 4.47777C9.9321 3.98033 9.61246 3.5482 9.18575 3.24273C8.75904 2.93726 8.24695 2.77397 7.72217 2.77605L2.82374 2.79167C2.16094 2.79453 1.52633 3.06016 1.05912 3.53029C0.591916 4.00043 0.330259 4.63668 0.331548 5.29949L0.362798 15.2995L0.366782 16.5495L1.61678 16.5455L1.6128 15.2955C1.6081 12.9756 2.52385 10.7486 4.15912 9.10301C5.79439 7.45745 8.01564 6.52777 10.3355 6.51792L15.3355 6.5023C17.6553 6.4976 19.8823 7.41325 21.5278 9.04837C23.1734 10.6835 24.1031 12.9046 24.1132 15.2243L24.1428 24.5993L1.6428 24.6705L1.62116 17.7955ZM1.62506 10.4136V5.25003C1.62546 4.91863 1.75728 4.60092 1.99161 4.36658C2.22595 4.13225 2.54366 4.00043 2.87506 4.00003C3.10789 4.00006 3.3348 4.07333 3.52367 4.20948C3.71254 4.34563 3.85379 4.53775 3.92741 4.75863L4.68522 7.03207C3.42007 7.91049 2.37319 9.06732 1.62506 10.4136ZM5.78178 6.36925L5.11334 4.36371C5.07174 4.23837 5.01977 4.11673 4.95795 4.00003H7.7735C8.03591 3.99983 8.29172 4.08229 8.5046 4.23571C8.71749 4.38913 8.87663 4.60572 8.95944 4.85472L9.11749 5.32886C7.95279 5.4756 6.82338 5.82786 5.78178 6.36925ZM12.8751 5.25003H11.6251V3.37503C11.6251 3.25894 11.648 3.144 11.6925 3.03676C11.7369 2.92952 11.8021 2.83209 11.8842 2.75003L12.8751 1.75917V5.25003ZM17.8751 5.25003H14.1251V4.00003H17.8751V5.25003ZM17.8751 2.75003H14.1251V1.50003H17.8751V2.75003ZM22.3054 36.4802L3.55538 36.5395C3.05827 36.5405 2.58107 36.3443 2.22845 35.9939C1.87583 35.6435 1.67659 35.1675 1.67444 34.6704L1.65467 28.4204L3.3542 28.415L2.97491 29.9532C2.92715 30.1667 2.90592 30.3853 2.9117 30.604C2.91354 31.1842 3.14576 31.7399 3.5573 32.1488C3.96883 32.5577 4.52596 32.7864 5.10612 32.7846C5.68628 32.7828 6.24195 32.5505 6.65089 32.139C7.05983 31.7275 7.28854 31.1704 7.2867 30.5902C7.29119 30.3714 7.26855 30.1529 7.21928 29.9396L6.83022 28.4041L24.1547 28.3494L24.1744 34.5994C24.1754 35.0965 23.9792 35.5737 23.6288 35.9262C23.2784 36.2788 22.8025 36.478 22.3054 36.4802ZM4.12506 30.5625C4.11994 30.446 4.1293 30.3293 4.15295 30.215L4.61303 28.375H5.51209L5.97209 30.215C6.12444 30.8243 5.73772 31.5 5.06256 31.5C4.81401 31.4998 4.5757 31.4009 4.39995 31.2251C4.22419 31.0494 4.12533 30.8111 4.12506 30.5625ZM30.3751 24.625H28.5001V15.25C28.4993 13.5553 28.0678 11.8886 27.2463 10.4063C26.4248 8.92406 25.24 7.67485 23.8033 6.77597C24.6639 6.99581 25.4855 7.34643 26.2397 7.81558C26.2489 7.82121 26.2581 7.8266 26.2674 7.83183C27.5276 8.61569 28.5665 9.70869 29.2854 11.007C30.0044 12.3054 30.3794 13.7659 30.3751 15.25V24.625ZM28.0728 4.75785C28.1465 4.53713 28.2878 4.34519 28.4767 4.20919C28.6655 4.07319 28.8923 4.00002 29.1251 4.00003C29.4565 4.00043 29.7742 4.13225 30.0085 4.36658C30.2428 4.60092 30.3747 4.91863 30.3751 5.25003V10.3926C29.628 9.0507 28.5813 7.8993 27.3165 7.028L28.0728 4.75785ZM23.0406 4.85457C23.1235 4.60559 23.2826 4.38903 23.4955 4.23564C23.7084 4.08225 23.9642 3.99981 24.2266 4.00003H27.0421C26.9804 4.11659 26.9285 4.23808 26.8869 4.36324L26.2188 6.36769C25.1762 5.82826 24.0466 5.47716 22.8819 5.33058L23.0406 4.85457ZM20.3751 5.25003H19.1251V1.75886L20.1159 2.75003C20.1981 2.83207 20.2632 2.9295 20.3077 3.03674C20.3522 3.14398 20.3751 3.25894 20.3751 3.37503V5.25003ZM20.6746 6.77347C22.5546 7.2586 24.2204 8.35421 25.4105 9.88837C26.6006 11.4225 27.2476 13.3084 27.2501 15.25V24.625H25.3751V15.25C25.3743 13.5545 24.9425 11.8871 24.1203 10.4043C23.298 8.92154 22.1123 7.67213 20.6746 6.77347ZM24.1468 25.8492L24.1507 27.0992L1.65069 27.1703L1.6467 25.9203L24.1468 25.8492ZM20.4124 30.861L14.1624 30.8807C13.831 30.8822 13.5137 31.015 13.2801 31.2501C13.0465 31.4852 12.9157 31.8033 12.9163 32.1347L12.9223 34.0097C12.9237 34.3411 13.0565 34.6585 13.2916 34.8921C13.5267 35.1257 13.8448 35.2565 14.1762 35.2558L20.4262 35.236C20.7577 35.2346 21.075 35.1018 21.3086 34.8667C21.5422 34.6316 21.673 34.3135 21.6723 33.9821L21.6664 32.1071C21.6649 31.7757 21.5321 31.4584 21.2971 31.2249C21.062 30.9913 20.7439 30.8605 20.4126 30.8611L20.4124 30.861ZM20.4223 33.986L14.1723 34.0057L14.1664 32.1307L20.4164 32.111L20.4231 33.986H20.4223ZM13.5001 19.625C13.7804 19.6258 14.0581 19.571 14.3171 19.4637C14.5761 19.3564 14.8113 19.1988 15.009 19L17.8751 16.1339C18.0732 15.9358 18.2304 15.7005 18.3376 15.4416C18.4449 15.1827 18.5001 14.9053 18.5001 14.625C18.5001 14.3448 18.4449 14.0673 18.3376 13.8084C18.2304 13.5495 18.0732 13.3143 17.8751 13.1161L15.009 10.25C14.8108 10.0519 14.5756 9.8947 14.3167 9.78746C14.0578 9.68022 13.7803 9.62502 13.5001 9.62502C13.2198 9.62502 12.9423 9.68022 12.6834 9.78746C12.4245 9.8947 12.1893 10.0519 11.9912 10.25L9.12506 13.1161C8.92691 13.3143 8.76973 13.5495 8.66249 13.8084C8.55525 14.0673 8.50005 14.3448 8.50005 14.625C8.50005 14.9053 8.55525 15.1827 8.66249 15.4416C8.76973 15.7005 8.92691 15.9358 9.12506 16.1339L11.9912 19C12.1888 19.1988 12.424 19.3564 12.683 19.4637C12.942 19.571 13.2197 19.6258 13.5001 19.625ZM9.75006 14.625C9.74975 14.5089 9.77247 14.3939 9.81691 14.2866C9.86135 14.1793 9.92663 14.0819 10.009 14L12.8751 11.1339C12.9571 11.0519 13.0546 10.9867 13.1618 10.9423C13.269 10.8979 13.384 10.875 13.5001 10.875C13.6161 10.875 13.7311 10.8979 13.8383 10.9423C13.9456 10.9867 14.043 11.0519 14.1251 11.1339L16.9912 14C17.0732 14.0821 17.1383 14.1795 17.1828 14.2868C17.2272 14.394 17.2501 14.509 17.2501 14.625C17.2501 14.7411 17.2272 14.856 17.1828 14.9633C17.1383 15.0705 17.0732 15.168 16.9912 15.25L14.1251 18.1161C14.043 18.1982 13.9456 18.2633 13.8383 18.3077C13.7311 18.3522 13.6161 18.375 13.5001 18.375C13.384 18.375 13.269 18.3522 13.1618 18.3077C13.0546 18.2633 12.9571 18.1982 12.8751 18.1161L10.009 15.25C9.92663 15.1681 9.86135 15.0707 9.81691 14.9635C9.77247 14.8562 9.74975 14.7412 9.75006 14.625ZM12.8751 15.875H11.6251V13.375H12.8751V15.875ZM15.3751 15.875H14.1251V13.375H15.3751V15.875Z" fill="white"/>
</svg>
