<svg width="25" height="25" viewBox="0 0 25 25" fill="none" xmlns="http://www.w3.org/2000/svg">
<path d="M12.5 25C19.4036 25 25 19.4036 25 12.5C25 5.59644 19.4036 0 12.5 0C5.59644 0 0 5.59644 0 12.5C0 19.4036 5.59644 25 12.5 25Z" fill="#75B73B"/>
<path d="M17.5899 7.41367C16.8651 7.23242 15.7993 6.60644 15.1094 6.35551C12.4158 5.51376 8.79629 6.18715 7.78618 9.30165C7.702 9.38583 7.53364 9.38583 7.44946 9.38583C5.42925 11.7427 6.77607 14.6047 6.60772 17.2141C6.55024 18.134 6.06655 18.9474 5.44409 19.6354L10.6825 24.8683C11.2759 24.9547 11.8826 25.0003 12.5 25.0003C18.6736 25.0003 23.8014 20.5245 24.8167 14.6409L17.5899 7.41367Z" fill="#52891D"/>
<path d="M12.1503 5.29546C8.34024 5.47671 5.33365 8.64975 5.34513 12.464C5.34864 13.6257 5.62911 14.7222 6.12393 15.6913L5.36431 19.3785C5.32325 19.578 5.50313 19.7526 5.70128 19.7057L9.31432 18.8497C10.2426 19.3122 11.2852 19.5791 12.3886 19.596C16.2828 19.6555 19.5298 16.5635 19.6513 12.6707C19.7813 8.498 16.3375 5.09599 12.1503 5.29546ZM16.4614 16.4033C15.4034 17.4614 13.9964 18.0441 12.5 18.0441C11.6238 18.0441 10.7849 17.8475 10.0066 17.4599L9.50352 17.2092L7.28819 17.7339L7.75445 15.4705L7.50665 14.985C7.10255 14.1936 6.89766 13.3381 6.89766 12.4418C6.89766 10.9453 7.48043 9.53852 8.53848 8.48037C9.58712 7.43164 11.017 6.83955 12.5001 6.83955C13.9964 6.83955 15.4033 7.42231 16.4614 8.48037C17.5194 9.53842 18.1022 10.9454 18.1022 12.4416C18.1023 13.9248 17.5101 15.3546 16.4614 16.4033Z" fill="white"/>
<path d="M15.9724 13.9935L14.5865 13.5956C14.4044 13.5434 14.2081 13.5951 14.0753 13.7303L13.7364 14.0756C13.5935 14.2213 13.3767 14.268 13.1875 14.1915C12.5319 13.9261 11.1528 12.6999 10.8008 12.0867C10.699 11.9097 10.7159 11.6886 10.8407 11.527L11.1365 11.1443C11.2524 10.9944 11.2768 10.7928 11.2002 10.6195L10.6171 9.30076C10.4775 8.98494 10.0739 8.89295 9.81014 9.11599C9.42337 9.44319 8.96444 9.94021 8.90873 10.491C8.81034 11.462 9.22684 12.686 10.8014 14.1558C12.6206 15.8539 14.0775 16.0781 15.0262 15.8484C15.5642 15.7181 15.9942 15.1958 16.2654 14.768C16.4505 14.4761 16.3042 14.0888 15.9724 13.9935Z" fill="white"/>
<path d="M17.383 7.21191L16.2979 8.32412C16.3531 8.37514 16.4081 8.42646 16.4615 8.47993C17.5196 9.53799 18.1023 10.9449 18.1023 12.4412C18.1023 13.9244 17.5101 15.3541 16.4615 16.4028C15.4034 17.4609 13.9965 18.0436 12.5001 18.0436C11.6239 18.0436 10.785 17.847 10.0066 17.4594L9.50359 17.2087L7.28826 17.7334L7.33406 17.5111L5.37244 19.5215C5.4157 19.6515 5.55334 19.74 5.70125 19.705L9.31428 18.849C10.2426 19.3115 11.2852 19.5784 12.3886 19.5953C16.2828 19.6548 19.5299 16.5628 19.6513 12.6701C19.7184 10.5151 18.8323 8.56577 17.383 7.21191Z" fill="#D1D1D1"/>
<path d="M15.9725 13.9926L14.5865 13.5947C14.4044 13.5425 14.2081 13.5942 14.0754 13.7295L13.7364 14.0747C13.5936 14.2204 13.3768 14.2671 13.1876 14.1906C12.8089 14.0373 12.189 13.5634 11.6649 13.0723L10.7014 14.0598C10.7345 14.0915 10.7674 14.123 10.8015 14.1549C12.6207 15.8531 14.0776 16.0772 15.0263 15.8475C15.5643 15.7173 15.9943 15.1949 16.2655 14.7671C16.4505 14.4753 16.3042 14.088 15.9725 13.9926Z" fill="#D1D1D1"/>
</svg>
