<svg width="20" height="20" viewBox="0 0 20 20" fill="none" xmlns="http://www.w3.org/2000/svg">
<g clip-path="url(#clip0)">
<path d="M1.08889 17.5534H4.49223C4.57252 17.5751 4.65506 17.5904 4.74156 17.5904H15.2578C15.3448 17.5904 15.4277 17.5751 15.5073 17.5534H18.9101C19.5114 17.5534 20 17.0643 20 16.4638V5.0814C20 4.48047 19.5114 3.99208 18.9101 3.99208H15.5073C15.4268 3.97035 15.3448 3.955 15.2578 3.955H13.3713C13.3555 3.48024 13.296 2.98237 13.0867 2.68397C13.0601 2.64491 13.0288 2.61032 12.9945 2.57807C12.9752 2.55953 12.9547 2.54305 12.9338 2.52736C12.8984 2.50174 12.8605 2.47941 12.8203 2.46173C12.7986 2.45267 12.7756 2.44603 12.7527 2.43956C12.6956 2.42223 12.6364 2.41016 12.574 2.41016H7.357C7.29439 2.41016 7.23549 2.42223 7.17848 2.43956C7.15554 2.44603 7.13234 2.45259 7.11104 2.46173C7.07059 2.47941 7.03316 2.50174 6.99755 2.52736C6.97616 2.54305 6.95563 2.55953 6.93614 2.57807C6.90191 2.61024 6.87034 2.64482 6.84378 2.68397C6.63447 2.98237 6.57505 3.48024 6.55935 3.955H4.74199C4.65549 3.955 4.57252 3.97035 4.49266 3.99208H1.08932C0.488817 3.99208 2.85021e-07 4.4809 2.85021e-07 5.0814V16.4638C-0.000430922 17.0643 0.488472 17.5534 1.08889 17.5534ZM18.7636 5.22853V16.3168H16.2503V5.22853H18.7636ZM4.98553 5.22853V5.19153H15.0139V5.22853V16.3168V16.3539H4.98553V16.3168V5.22853ZM12.0765 3.64677C12.087 3.74578 12.0974 3.85082 12.1059 3.95509H7.82452C7.83323 3.85091 7.8434 3.74535 7.85367 3.64677H12.0765ZM1.2361 5.22853H3.74909V16.3168H1.2361V5.22853Z" fill="#9F9F9F"/>
</g>
<defs>
<clipPath id="clip0">
<rect width="20" height="20" fill="white"/>
</clipPath>
</defs>
</svg>
